<svg version="1.1" id="Layer_1" xmlns="http://www.w3.org/2000/svg" xmlns:xlink="http://www.w3.org/1999/xlink" x="0px" y="0px"
	 width="100%" viewBox="0 0 496 992" enable-background="new 0 0 496 992" xml:space="preserve">
<path fill="#000000" opacity="1.000000" stroke="none" 
	d="
M256.457031,465.602966 
	C256.764282,468.043365 257.242004,470.012970 257.264374,471.987732 
	C257.657410,506.633331 257.995392,541.279541 258.342194,575.925659 
	C258.355560,577.258545 258.380829,578.593262 258.328369,579.924316 
	C258.040802,587.220398 258.043640,587.162354 265.410187,588.508789 
	C269.342712,589.227539 273.539703,589.225342 276.942993,592.481018 
	C269.600677,595.817566 261.603088,593.149048 253.423080,594.908142 
	C257.869263,602.684937 257.670715,610.483521 256.263306,618.764587 
	C255.639496,622.435059 257.934723,626.779236 259.463867,630.593567 
	C261.429504,635.496765 263.832886,640.239868 266.292114,644.923645 
	C267.629089,647.469910 269.576996,648.333923 272.416199,646.358521 
	C276.043884,643.834473 279.341064,644.713196 281.885437,648.299744 
	C284.289215,651.688049 287.265076,654.676453 289.052826,658.495483 
	C291.830139,664.428284 296.180878,668.896973 301.914673,671.957825 
	C308.822174,675.645081 311.212341,681.282654 311.518555,689.072388 
	C312.285034,708.570190 306.904327,726.476990 297.336487,742.881165 
	C289.733978,755.915710 285.766449,769.581421 284.313629,784.309265 
	C283.988708,787.603210 283.374725,790.882141 282.687439,794.124268 
	C281.019043,801.994202 280.690826,809.454895 284.063812,817.320801 
	C292.144012,836.164001 294.483093,856.380310 296.316071,876.590515 
	C299.253418,908.977661 298.257507,941.461426 298.383423,973.915588 
	C298.395050,976.914795 298.364044,979.914307 298.392700,982.913269 
	C298.477356,991.778137 298.483917,991.934021 289.141113,991.859802 
	C260.820923,991.634888 232.496429,992.449036 204.178375,991.479797 
	C200.866745,991.366394 197.535858,991.800171 194.214478,991.990051 
	C189.033554,992.286255 187.456512,990.944336 188.684326,986.075317 
	C194.162170,964.352600 191.748199,941.729187 196.442734,919.899536 
	C197.505463,914.957947 196.565369,909.600464 196.679428,904.437378 
	C197.225159,879.733215 200.374466,855.459595 208.751175,832.056030 
	C210.712433,826.576538 212.331406,820.961548 214.541656,815.587402 
	C217.293365,808.896729 216.848068,802.490173 214.839783,795.661377 
	C210.342758,780.370117 204.924072,765.314880 202.406204,749.481262 
	C200.251755,735.932983 200.352142,722.396423 201.551346,708.744812 
	C202.807068,694.449524 204.806915,680.403015 209.816833,666.866272 
	C212.236374,660.328674 216.136749,654.337036 217.134796,647.279053 
	C217.552109,644.327698 217.842621,641.358643 218.211441,638.400269 
	C218.741684,634.146912 220.270416,631.170105 225.359528,633.356079 
	C231.500580,620.356812 232.969696,606.024841 240.841629,593.971252 
	C233.780960,590.903809 226.232483,593.659912 219.333633,591.723633 
	C219.098160,588.780945 220.920395,588.806396 222.571426,588.687378 
	C227.209686,588.352722 231.846527,587.897278 236.490982,587.787231 
	C239.355652,587.719299 240.694351,586.793335 241.896515,583.927856 
	C244.198776,578.440063 243.596146,573.206909 243.194458,567.511414 
	C242.364334,555.741394 242.788910,543.882263 242.737900,532.059570 
	C242.735229,531.440979 242.917450,530.498596 243.336258,530.249451 
	C250.028915,526.268250 246.302017,520.238342 245.829865,515.249512 
	C245.560593,512.404236 244.443558,509.463684 244.706116,506.494995 
	C245.762329,494.552124 244.881180,482.596802 244.486649,470.693878 
	C243.677658,446.287445 243.777710,421.888397 243.628036,397.483490 
	C243.605255,393.770691 244.640198,390.237762 244.678925,386.579742 
	C244.702560,384.347900 245.921417,383.174988 247.973175,382.910797 
	C250.327682,382.607574 250.730530,384.659973 250.996674,386.152679 
	C252.218826,393.007477 253.928482,399.874786 254.179962,406.784302 
	C254.887878,426.235626 257.088501,445.633392 256.457031,465.602966 
M233.245071,670.778748 
	C231.856232,675.219360 231.326630,679.812439 230.689392,684.527771 
	C241.425049,675.337585 258.084351,677.453430 264.161316,689.154297 
	C268.538452,697.582397 271.138153,706.741760 271.391144,716.391113 
	C271.469177,719.365967 271.508698,722.346924 266.679169,721.449463 
	C270.749207,723.003906 273.347412,721.621033 275.125275,718.401367 
	C277.626801,713.871155 279.447845,709.089783 280.834412,704.079407 
	C281.968079,699.982910 281.989716,696.785339 277.945862,694.141724 
	C275.594177,692.604309 274.406006,689.828369 273.603333,687.035583 
	C272.365082,682.727173 270.986084,678.459167 269.749207,674.150391 
	C269.237518,672.367920 268.928192,670.289001 267.015778,669.660950 
	C262.802429,668.277344 260.714233,664.818909 258.748108,661.406799 
	C257.205811,658.730164 255.305099,657.006775 252.311844,656.455261 
	C249.675232,655.969421 247.059021,654.738770 246.929367,652.014587 
	C246.638794,645.910095 243.283371,640.920837 241.859100,635.319946 
	C238.516037,638.867432 237.659943,642.206726 241.733902,645.906616 
	C244.860168,648.745789 244.020355,652.104065 241.932602,655.369324 
	C238.890030,660.127930 235.504913,664.696228 233.245071,670.778748 
z"/>
</svg>