<svg version="1.1" id="Layer_1" xmlns="http://www.w3.org/2000/svg" xmlns:xlink="http://www.w3.org/1999/xlink" x="0px" y="0px"
	 width="100%" viewBox="0 0 496 496" enable-background="new 0 0 496 496" xml:space="preserve">
<path fill="#000000" opacity="1.000000" stroke="none" 
	d="
M314.925171,305.939636 
	C276.144287,341.800568 214.068481,325.710968 198.303177,276.021820 
	C187.195602,241.012939 209.016785,202.246246 245.544464,191.873734 
	C262.763672,186.984116 279.450195,188.158600 295.695801,195.605423 
	C298.190430,196.748917 300.932404,197.801956 301.467865,201.259003 
	C298.465088,203.352737 295.764740,201.445587 293.232788,200.925613 
	C274.147064,197.005981 253.732025,205.756516 243.708847,222.383789 
	C227.379044,249.472946 244.316833,284.307953 275.691498,289.812439 
	C298.663239,293.842590 327.772827,278.431244 330.620422,246.972504 
	C330.751373,245.525940 330.426666,243.960419 331.775055,242.548477 
	C334.759735,243.024612 334.935394,245.608795 335.292816,247.713608 
	C338.135529,264.454285 334.100616,279.737274 325.151398,293.894135 
	C322.382294,298.274567 318.977478,302.160614 314.925171,305.939636 
M221.121048,209.612167 
	C197.976288,231.464020 192.788834,261.876221 207.716003,288.201569 
	C222.625153,314.495148 254.455063,327.204926 284.370331,318.809906 
	C311.682373,311.145416 332.557159,285.550598 331.784790,260.674469 
	C322.690674,286.218445 298.812073,296.131348 278.971985,293.988037 
	C251.236633,290.991791 235.872345,271.094604 233.770844,250.626190 
	C232.252838,235.841171 236.371216,222.605042 246.853180,211.695282 
	C257.089722,201.040939 269.958221,196.441574 284.497498,195.654846 
	C261.287598,189.970810 240.182236,193.649826 221.121048,209.612167 
z"/>
<path fill="#000000" opacity="1.000000" stroke="none" 
	d="
M318.441254,235.018982 
	C318.120514,233.065765 318.472260,231.285324 317.127472,230.029373 
	C315.675018,229.561752 315.027649,230.901596 313.990509,231.295868 
	C311.465851,232.255646 310.138855,231.296600 311.247131,228.836548 
	C313.162384,224.585312 310.588959,224.271194 307.622314,224.137482 
	C303.803986,223.965363 299.978027,223.952881 296.161774,223.751099 
	C295.390594,223.710327 294.594391,223.196899 294.293427,222.109573 
	C294.492340,220.212387 296.175964,220.149246 297.591064,220.033966 
	C299.743164,219.858688 301.916412,219.931839 304.080780,219.920380 
	C312.207214,219.877335 312.207245,219.880539 310.066132,212.598511 
	C310.657867,211.459320 311.822083,211.327362 312.619812,211.857666 
	C317.273773,214.951447 317.951935,212.370956 317.842865,208.381561 
	C317.760986,205.385696 317.733307,202.386093 317.781860,199.389771 
	C317.810425,197.625122 317.517029,195.584808 320.516876,194.984009 
	C322.229095,198.450653 321.779816,202.290527 321.951233,205.938126 
	C322.296997,213.295486 322.156799,213.283295 329.008148,211.650192 
	C329.572266,211.515747 330.252075,211.866898 330.711365,211.958984 
	C331.434143,213.198273 330.964264,214.061249 330.519836,214.986725 
	C328.955078,218.245132 330.390808,219.726074 333.634888,219.847626 
	C336.628235,219.959808 339.630157,219.823807 342.625885,219.897095 
	C344.385681,219.940140 346.388367,219.640396 347.320038,222.279175 
	C345.529572,224.895447 342.676514,223.894913 340.222687,224.091553 
	C338.899200,224.197617 337.559631,224.099503 336.227295,224.099472 
	C329.764465,224.099365 329.777618,224.099091 330.271118,230.603485 
	C330.302338,231.014923 329.887390,231.460205 329.701599,231.845001 
	C327.066833,232.856201 326.159576,229.378769 323.157471,229.890045 
	C320.264771,235.635422 324.370331,243.121002 320.008453,248.911575 
	C317.674774,244.491028 318.914886,239.852371 318.441254,235.018982 
z"/>
</svg>