<svg version="1.1" id="Layer_1" xmlns="http://www.w3.org/2000/svg" xmlns:xlink="http://www.w3.org/1999/xlink" x="0px" y="0px"
	 width="100%" viewBox="0 0 496 496" enable-background="new 0 0 496 496" xml:space="preserve">
<path fill="#000000" opacity="1.000000" stroke="none" 
	d="
M207.056091,267.693268 
	C195.171127,238.665680 215.141068,209.307541 244.713684,208.922562 
	C265.166992,208.656281 282.572662,223.610260 286.025574,243.868591 
	C289.402893,263.683319 277.714722,283.384613 258.593658,290.107178 
	C239.540146,296.806030 218.536163,288.659851 208.582520,270.704468 
	C208.099182,269.832581 207.671478,268.929840 207.056091,267.693268 
M207.578110,246.151535 
	C206.969482,250.329025 207.264435,254.466690 208.273773,258.542572 
	C212.060059,273.832458 221.500931,284.086884 236.837631,287.419128 
	C252.549454,290.832886 265.985413,285.667419 275.422485,272.462250 
	C284.589630,259.634888 285.149628,245.755463 277.589813,231.947754 
	C269.916992,217.933701 254.182770,210.790207 238.127884,213.432312 
	C222.970352,215.926773 211.148300,228.326920 207.578110,246.151535 
z"/>
<path fill="#000000" opacity="1.000000" stroke="none" 
	d="
M238.505188,180.652222 
	C239.835144,178.102386 240.870132,175.811096 242.208023,173.712967 
	C245.327499,168.820877 247.534500,163.745514 246.652985,157.738815 
	C246.441132,156.295273 246.270447,154.549774 248.238525,154.045456 
	C249.839554,153.635162 250.588165,154.996384 251.374908,156.039108 
	C254.047516,159.581284 254.870056,163.427048 253.657074,167.805542 
	C252.327591,172.604660 250.489426,177.252274 249.852051,182.266998 
	C249.117722,188.044754 249.648483,193.527390 252.153976,198.813461 
	C252.897125,200.381332 254.261642,201.953720 252.786392,203.835052 
	C246.263290,201.598129 244.503006,191.842926 247.379150,173.263443 
	C243.768005,178.165192 241.460190,183.243408 239.438187,188.531509 
	C237.451233,193.727829 237.427689,199.051712 238.422852,204.934799 
	C233.790375,203.921951 233.838715,200.794159 233.764481,198.216721 
	C233.587631,192.076355 236.013931,186.527176 238.505188,180.652222 
z"/>
<path fill="#000000" opacity="1.000000" stroke="none" 
	d="
M285.729431,215.816238 
	C284.036957,217.945831 284.302063,221.101166 281.289032,221.859100 
	C278.822235,220.271744 279.973846,218.311707 280.730377,216.562790 
	C283.424347,210.334824 288.811890,207.018188 294.555084,204.187515 
	C297.539551,202.716553 300.677460,201.558960 303.679352,200.120636 
	C305.600372,199.200195 307.545746,198.135590 307.280548,194.621384 
	C301.621674,199.819138 294.831360,200.379349 288.170044,201.616684 
	C280.736481,202.997467 274.739716,206.857300 271.219666,213.950714 
	C268.277954,210.791473 268.474762,208.659714 271.922699,205.671982 
	C277.459747,200.873901 283.711609,197.597168 291.167847,197.001404 
	C297.821198,196.469818 303.454651,194.533401 306.293701,187.562897 
	C307.461151,184.696487 309.345093,185.721298 310.509979,188.068649 
	C313.626251,194.348267 310.986938,201.368057 304.403656,204.195984 
	C297.695221,207.077682 290.574829,209.272293 285.729431,215.816238 
z"/>
<path fill="#000000" opacity="1.000000" stroke="none" 
	d="
M280.931244,295.145050 
	C284.514862,299.320221 285.624481,304.305420 287.621887,308.853912 
	C289.378326,312.853607 291.917206,315.764069 296.827972,316.283600 
	C291.303955,310.168976 291.302490,302.211548 289.070679,295.033997 
	C287.778595,290.878479 286.292633,286.836456 283.147552,283.626617 
	C282.117798,282.575653 280.722229,281.172791 282.298553,279.823486 
	C284.019104,278.350708 285.395050,279.959106 286.462738,281.201080 
	C290.482452,285.876923 292.773529,291.506012 293.794983,297.410919 
	C295.084167,304.863464 297.480774,311.505951 303.104950,316.794159 
	C304.235840,317.857483 305.742828,319.297150 304.592041,321.119751 
	C303.513092,322.828552 301.592651,322.335144 300.012573,322.008026 
	C292.875031,320.530457 286.695343,317.713623 283.931152,310.201569 
	C281.510956,303.624390 279.149139,296.999176 272.832764,292.878021 
	C271.864685,292.246429 271.080994,291.104340 272.026398,289.893951 
	C272.944977,288.717926 274.224792,289.100677 275.146820,289.859253 
	C277.069275,291.440918 278.852997,293.191254 280.931244,295.145050 
z"/>
<path fill="#000000" opacity="1.000000" stroke="none" 
	d="
M197.495697,202.563934 
	C199.099258,209.194717 201.819000,214.971298 205.312531,220.407516 
	C201.587341,222.428268 200.612503,220.046265 199.553650,218.324112 
	C196.832443,213.898300 194.956909,209.057846 193.910263,204.005753 
	C192.374100,196.590988 189.345306,190.177460 183.252075,185.434677 
	C182.014221,184.471176 181.072906,183.213211 181.736420,181.563034 
	C182.299484,180.162659 183.691818,179.855972 185.060028,179.777344 
	C189.965591,179.495453 194.536972,180.372177 197.156998,185.010559 
	C202.139450,193.831314 206.724213,202.892807 214.545319,209.710754 
	C215.208008,210.288452 215.213760,211.189499 214.648880,212.103333 
	C212.333572,213.489548 211.079803,211.542114 209.698410,210.253906 
	C204.535507,205.439362 200.524475,199.833435 197.544632,193.383255 
	C195.786224,189.577057 194.224075,185.274612 187.933441,183.632401 
	C192.605103,189.878571 196.415634,195.393997 197.495697,202.563934 
z"/>
<path fill="#000000" opacity="1.000000" stroke="none" 
	d="
M240.209656,329.379700 
	C240.569580,331.422424 241.016357,332.995941 243.330246,334.180511 
	C245.307236,324.931793 249.617661,316.706512 252.517303,307.950226 
	C253.173340,305.969116 252.396423,304.026337 251.573273,302.158875 
	C250.984314,300.822723 250.053467,299.106934 252.023392,298.316895 
	C253.834717,297.590485 254.489609,299.430878 255.332199,300.629120 
	C257.216156,303.308380 257.409546,306.137726 256.291779,309.163879 
	C253.814270,315.871307 251.269150,322.557129 248.975784,329.327698 
	C247.913223,332.464600 247.425446,335.792267 246.584610,339.009308 
	C245.744873,342.222137 243.926987,342.899445 241.727310,340.281494 
	C237.659561,335.440216 234.526474,330.225098 236.473328,323.425079 
	C237.066635,321.352722 237.173660,319.139343 237.787308,317.074921 
	C239.486725,311.357819 240.502487,305.745453 236.967209,300.277496 
	C236.353973,299.329041 235.982834,298.111816 237.489029,296.598511 
	C241.851410,298.308075 242.493515,302.480164 243.228027,306.335114 
	C243.824738,309.466827 242.966934,312.614319 242.224289,315.707489 
	C241.176498,320.071564 239.945877,324.416962 240.209656,329.379700 
z"/>
<path fill="#000000" opacity="1.000000" stroke="none" 
	d="
M188.940765,307.821320 
	C186.207703,309.215607 184.230209,310.940430 182.312820,312.824402 
	C180.387939,314.715790 179.061432,313.921143 178.607300,311.410736 
	C177.584579,305.757111 180.526047,298.982513 185.472687,295.875183 
	C187.581085,294.550751 189.847534,293.480499 192.012955,292.243622 
	C196.818893,289.498474 201.451172,286.593414 203.410812,280.934875 
	C203.831863,279.719116 204.502457,278.466797 206.194641,278.236816 
	C208.469955,279.466095 207.369629,281.244568 206.832718,282.894806 
	C204.752502,289.288391 199.517899,292.519531 194.105713,295.591980 
	C191.219421,297.230530 188.299042,298.837952 185.574066,300.720062 
	C184.092194,301.743591 183.007950,303.321259 183.636490,305.912445 
	C190.002869,302.867188 196.835297,301.649261 203.381119,299.489380 
	C207.782272,298.037140 211.519775,295.773224 212.706970,290.712952 
	C213.048599,289.256775 213.602158,286.942627 215.873947,287.865387 
	C217.969421,288.716492 216.836273,290.652374 216.459656,292.228912 
	C215.059555,298.089386 210.798111,301.060638 205.522980,302.804352 
	C200.160782,304.576904 194.700775,306.053528 188.940765,307.821320 
z"/>
<path fill="#000000" opacity="1.000000" stroke="none" 
	d="
M330.069153,251.819595 
	C332.857758,251.925797 336.141632,250.689407 336.642303,254.229294 
	C337.068085,257.239868 334.474823,259.052643 331.902374,259.943359 
	C326.161102,261.931213 320.364563,260.794891 314.663940,259.534058 
	C307.363220,257.919281 301.213867,252.262939 292.139404,254.769608 
	C294.535675,249.468201 297.938568,250.066833 300.801849,250.369537 
	C303.043030,250.606461 305.301910,251.630020 307.334045,252.714249 
	C314.033386,256.288574 321.115906,257.473907 328.739258,256.330627 
	C315.808594,254.601624 307.689789,242.127731 293.875031,242.462326 
	C295.122467,238.640579 297.323395,239.074142 299.204346,239.238907 
	C303.965302,239.655991 308.065033,241.708817 312.056305,244.301773 
	C317.446167,247.803314 322.616547,252.038330 330.069153,251.819595 
z"/>
<path fill="#000000" opacity="1.000000" stroke="none" 
	d="
M164.499207,250.220810 
	C161.073013,250.138840 158.092987,250.206665 155.167801,251.057785 
	C154.038406,251.386398 152.774567,251.423920 151.990097,250.293167 
	C151.218765,249.181396 151.702438,248.116196 152.318893,247.047791 
	C154.920380,242.539017 158.662796,239.881836 163.974777,239.670959 
	C167.838882,239.517563 171.625977,240.058136 175.324661,241.102707 
	C181.846649,242.944641 188.347885,243.721985 194.926910,241.373520 
	C195.461365,241.182724 196.163666,241.462067 197.062073,241.549683 
	C197.010498,245.707489 194.039642,245.879364 191.371384,246.229721 
	C183.611435,247.248642 176.180191,245.129669 168.670685,243.745056 
	C165.354767,243.133682 162.048523,242.883820 157.805923,246.373459 
	C169.227814,244.393494 176.034653,252.889404 185.407379,254.272736 
	C188.789505,254.771896 192.241089,252.540939 195.716583,254.846802 
	C194.890472,257.839661 192.523788,258.096039 190.277069,258.233734 
	C183.913986,258.623779 178.180161,256.435974 172.638199,253.620697 
	C170.129745,252.346405 167.855804,250.549713 164.499207,250.220810 
z"/>
<path fill="#000000" opacity="1.000000" stroke="none" 
	d="
M223.688049,299.446960 
	C222.801208,302.883087 220.379822,305.072235 218.136353,309.022675 
	C224.892563,304.863434 227.266800,298.846832 231.096466,293.947693 
	C234.107040,295.821686 232.998489,297.841370 231.993835,299.679657 
	C229.827667,303.643280 227.016800,307.135773 223.626144,310.118866 
	C221.515503,311.975800 219.107651,313.503906 217.863708,316.199585 
	C217.448502,317.099365 216.738495,317.942352 215.560303,317.736603 
	C214.136566,317.488007 213.795776,316.316742 213.781357,315.116913 
	C213.741562,311.810852 213.166992,308.247894 215.358231,305.481049 
	C218.546432,301.455353 220.798737,297.199249 220.977448,291.971039 
	C220.995285,291.449127 221.666031,290.949524 222.256638,290.130493 
	C225.945221,292.813141 224.400085,296.043701 223.688049,299.446960 
z"/>
<path fill="#000000" opacity="1.000000" stroke="none" 
	d="
M287.442627,272.270508 
	C291.510132,271.973816 293.629547,274.956573 296.437653,276.589203 
	C298.297485,277.670502 300.058929,278.944244 303.193542,279.530670 
	C300.650665,276.205505 298.848511,273.282623 296.133301,270.939545 
	C293.582794,268.738617 289.889191,267.779388 288.380920,264.095917 
	C290.348450,261.966675 291.989258,263.301422 293.684906,264.241394 
	C300.730103,268.147034 304.512115,275.356201 310.212341,280.639160 
	C312.412506,282.678253 310.851410,284.303711 308.224457,284.391846 
	C304.513977,284.516266 300.902466,283.803650 297.685333,281.896240 
	C294.262482,279.866882 290.965637,277.623718 287.630463,275.448334 
	C286.399109,274.645172 285.427368,273.733063 287.442627,272.270508 
z"/>
<path fill="#000000" opacity="1.000000" stroke="none" 
	d="
M295.201538,227.024796 
	C292.358643,227.244186 289.879059,227.456024 287.402893,227.702530 
	C286.341522,227.808212 285.318573,227.708954 284.888977,226.616608 
	C284.319855,225.169556 285.347198,224.354889 286.469818,223.982620 
	C292.813110,221.879074 299.314270,222.982224 305.742981,223.352127 
	C307.219482,223.437088 307.579651,225.314667 306.678864,226.578812 
	C305.832703,227.766251 304.731323,228.912399 303.489319,229.651962 
	C299.010315,232.319077 293.907410,233.673416 289.424530,236.611938 
	C288.935394,230.050842 295.170197,230.483307 298.313477,227.278564 
	C297.147339,227.173599 296.356750,227.102448 295.201538,227.024796 
z"/>
<path fill="#000000" opacity="1.000000" stroke="none" 
	d="
M196.193069,272.122375 
	C198.791977,272.344299 201.335159,271.408020 202.777267,273.852081 
	C202.833847,275.297546 201.955978,275.987915 200.968552,276.010956 
	C194.984055,276.150940 188.996490,276.170837 183.009796,276.197510 
	C181.957108,276.202209 180.996017,275.803131 180.619308,274.733551 
	C180.175507,273.473511 180.703583,272.333496 181.708694,271.666931 
	C183.357559,270.573395 185.076981,269.510498 186.904236,268.777832 
	C190.455292,267.354004 194.109985,266.199585 197.305344,263.993896 
	C198.385864,263.248016 199.746704,262.272095 200.742599,263.885468 
	C201.629471,265.322266 200.447830,266.404541 199.374435,267.215729 
	C196.458298,269.419525 193.081909,270.724274 189.691650,272.483765 
	C191.719101,272.366028 193.746567,272.248260 196.193069,272.122375 
z"/>
<path fill="#000000" opacity="1.000000" stroke="none" 
	d="
M267.231964,314.726501 
	C261.481506,311.650757 256.255371,301.158356 258.004517,296.303070 
	C262.411133,298.420868 261.801178,303.887512 265.073608,306.606384 
	C269.290833,302.339233 263.365570,298.524323 264.253693,294.373169 
	C271.021393,295.545959 272.797546,307.259491 267.231964,314.726501 
z"/>
<path fill="#000000" opacity="1.000000" stroke="none" 
	d="
M220.137024,191.909134 
	C219.644028,189.880753 217.946777,187.790283 220.370514,186.746323 
	C222.792999,185.702881 223.220551,188.308624 224.069351,189.787964 
	C226.220108,193.536469 228.309891,197.319992 230.420685,201.091415 
	C231.215103,202.510803 232.448517,203.806992 231.624802,206.000336 
	C226.909042,206.674515 227.389908,201.373260 224.614441,199.712646 
	C222.226395,202.996140 226.509857,206.185623 224.787674,209.699753 
	C220.575134,208.727234 220.206223,205.440033 219.807114,202.180130 
	C219.399872,198.853790 221.161621,195.625137 220.137024,191.909134 
z"/>
<path fill="#000000" opacity="1.000000" stroke="none" 
	d="
M196.530426,227.841400 
	C195.279434,227.057236 194.301224,226.469757 192.312088,225.275131 
	C193.608490,228.718033 195.924881,229.716202 197.618744,231.244049 
	C198.510269,232.048203 199.484604,232.930283 198.589508,234.175781 
	C197.721359,235.383820 196.476410,234.936966 195.478714,234.272324 
	C194.101715,233.355057 192.741730,232.379715 191.518585,231.270325 
	C188.274292,228.327774 186.338943,224.108704 181.670242,222.449738 
	C187.167084,217.815765 200.888275,223.115372 202.091003,229.539490 
	C199.807907,230.879150 198.477173,228.822906 196.530426,227.841400 
z"/>
<path fill="#000000" opacity="1.000000" stroke="none" 
	d="
M268.352966,197.620544 
	C266.530823,200.269485 268.085632,203.289566 266.349060,205.866821 
	C262.125427,204.881454 263.620483,201.417267 263.238770,198.790390 
	C263.011444,198.843338 262.624725,198.819946 262.535156,198.971832 
	C261.657410,200.459732 261.998108,202.805450 259.660767,203.221237 
	C259.192078,203.304611 258.296722,202.788925 258.107910,202.336624 
	C257.250916,200.283875 257.956207,198.324692 259.192108,196.724548 
	C260.182068,195.442810 261.492249,194.273666 262.900085,193.479645 
	C265.250732,192.153839 267.607758,191.030289 268.429443,188.116302 
	C268.756012,186.958145 269.611664,185.959457 271.037415,186.447067 
	C272.354126,186.897339 272.532074,188.140167 272.475739,189.346771 
	C272.325897,192.557648 270.199524,194.806519 268.352966,197.620544 
z"/>
</svg>