<?xml version="1.0" encoding="UTF-8"?>
<svg version="1.1" xmlns="http://www.w3.org/2000/svg" width="492" height="985">
<path d="M0 0 C3.39377529 12.44384271 4.14318174 25.06436869 4.87890625 37.89471436 C4.96061447 39.31525961 5.0439864 40.73571001 5.12890625 42.15606689 C6.82097835 70.48194476 7.28699836 98.8197288 7.625 127.1875 C7.63537922 128.04724049 7.64575844 128.90698097 7.65645218 129.7927742 C7.9449263 153.86239368 8.05549816 177.928742 8 202 C9.13179688 202.18175781 10.26359375 202.36351562 11.4296875 202.55078125 C12.91157342 202.80401492 14.39333823 203.05795811 15.875 203.3125 C16.62136719 203.43044922 17.36773437 203.54839844 18.13671875 203.66992188 C20.11057568 204.01668053 22.05893159 204.50139575 24 205 C24.66 205.99 25.32 206.98 26 208 C23.13026116 209.61635488 20.95535797 210.2733418 17.671875 210.4140625 C16.87265625 210.45273437 16.0734375 210.49140625 15.25 210.53125 C14.0125 210.57765625 14.0125 210.57765625 12.75 210.625 C11.90953125 210.66367187 11.0690625 210.70234375 10.203125 210.7421875 C8.13576618 210.83615836 6.06791373 210.91915564 4 211 C4.32798584 211.7204248 4.65597168 212.44084961 4.99389648 213.18310547 C6.02973878 216.08326282 6.18965862 218.01675109 6.09765625 221.0703125 C5.98673472 235.13516278 8.05329609 245.22768691 15.18969727 257.40966797 C16 259 16 259 16 261 C16.70125 260.855625 17.4025 260.71125 18.125 260.5625 C19.07375 260.376875 20.0225 260.19125 21 260 C22.485 259.5978125 22.485 259.5978125 24 259.1875 C27 259 27 259 29.375 260.5234375 C32.55616673 263.52471682 34.69196791 266.74825496 37 270.4375 C41.66071845 277.84367291 46.86420841 283.04471372 53.9140625 288.25390625 C59.1490091 292.6359683 59.84938841 296.7933724 60.70703125 303.390625 C62.24941196 322.39275538 55.73994324 341.60290926 46.69311523 358.06787109 C37.63941048 374.6264987 34.2733024 391.33754738 32 410 C31.90750977 410.74169434 31.81501953 411.48338867 31.71972656 412.24755859 C30.5951631 422.60442534 33.77302102 431.10940016 37.1875 440.6875 C46.84541488 468.19069793 47.16456916 499.03029333 47.1328125 527.8671875 C47.13348738 530.04053763 47.13445894 532.21388768 47.13571167 534.38723755 C47.13717559 538.90709157 47.1350735 543.42692566 47.13037109 547.94677734 C47.12462646 553.75193776 47.12799064 559.55705242 47.13394356 565.36221123 C47.13754386 569.83326569 47.13641388 574.30430914 47.13381577 578.77536392 C47.13314749 580.91809215 47.13397147 583.06082136 47.13629532 585.20354843 C47.13881825 588.17853233 47.13498859 591.15343981 47.12939453 594.12841797 C47.13141876 595.01762939 47.13344299 595.90684082 47.13552856 596.82299805 C47.11427261 602.88572739 47.11427261 602.88572739 46 604 C44.59588683 604.0954693 43.18700191 604.12188529 41.77964783 604.12025452 C40.86954453 604.12162918 39.95944122 604.12300385 39.02175903 604.12442017 C38.01547455 604.12082489 37.00919006 604.11722961 35.97241211 604.11352539 C34.91888046 604.11367142 33.86534882 604.11381744 32.77989197 604.1139679 C29.279022 604.11326826 25.77820448 604.10547348 22.27734375 604.09765625 C19.85738657 604.09579225 17.43742901 604.09436826 15.01747131 604.09336853 C8.63384976 604.08954192 2.25025079 604.07971041 -4.13336182 604.06866455 C-10.64163914 604.05845351 -17.1499201 604.05387157 -23.65820312 604.04882812 C-36.43881175 604.03808827 -49.21940467 604.02120112 -62 604 C-63.06021281 599.4530565 -62.60420713 595.90387854 -61.66015625 591.390625 C-59.82970568 581.88214383 -59.08563507 572.399797 -58.4375 562.75 C-58.21364588 559.49429145 -57.98358367 556.23911762 -57.74609375 552.984375 C-57.68932968 552.20063507 -57.63256561 551.41689514 -57.57408142 550.60940552 C-57.22833296 546.12206219 -56.69440719 541.72981146 -55.9375 537.2890625 C-54.84767806 530.74497314 -54.68663509 524.28310325 -54.59436035 517.65863037 C-54.37446371 503.62273699 -53.45516619 489.84052235 -51 476 C-50.76869385 474.69289063 -50.76869385 474.69289063 -50.53271484 473.359375 C-48.83576419 464.20971486 -46.56159954 455.36913725 -43.453125 446.59375 C-43.2273024 445.95474762 -43.0014798 445.31574524 -42.76881409 444.65737915 C-41.64732885 441.50609709 -40.49575005 438.37279292 -39.30249023 435.24755859 C-33.97592339 420.78210621 -36.30551111 410.27198073 -40.8125 396.125 C-41.72327002 393.21350619 -42.62459041 390.29920925 -43.51953125 387.3828125 C-43.73715118 386.67441223 -43.95477112 385.96601196 -44.1789856 385.23614502 C-54.98124191 349.48004292 -52.64623568 307.97461562 -38.57421875 273.5078125 C-35.76065272 266.58594208 -34.24233582 260.36193753 -33.5546875 252.8984375 C-33 250 -33 250 -31.7578125 248.1015625 C-29.43341957 246.64494293 -27.69546533 246.92235738 -25 247 C-24.82404297 246.4028418 -24.64808594 245.80568359 -24.46679688 245.19042969 C-22.58102289 238.84132902 -20.58347743 232.53682489 -18.5 226.25 C-18.20480469 225.34378906 -17.90960938 224.43757812 -17.60546875 223.50390625 C-16.04236063 218.78703814 -14.37259553 214.36904787 -12 210 C-15.71279469 208.76240177 -19.31306346 208.64391103 -23.1875 208.4375 C-24.31188477 208.37272461 -24.31188477 208.37272461 -25.45898438 208.30664062 C-27.30578375 208.20077315 -29.15286834 208.0999024 -31 208 C-31 206.68 -31 205.36 -31 204 C-26.5089694 202.5029898 -21.95624564 202.555781 -17.25 202.28125 C-13.9907069 202.12649029 -13.9907069 202.12649029 -11 201 C-9.20161847 197.57040899 -8.76297937 194.75775823 -8.83642578 190.921875 C-8.84948761 189.93735352 -8.86254944 188.95283203 -8.87600708 187.93847656 C-8.89887787 186.8862793 -8.92174866 185.83408203 -8.9453125 184.75 C-8.97059872 182.51042277 -8.9953211 180.27083912 -9.01953125 178.03125 C-9.06921789 174.50891013 -9.12524779 170.98690509 -9.19189453 167.46484375 C-9.25228994 164.05987406 -9.28783733 160.65533427 -9.3203125 157.25 C-9.34723175 156.19780273 -9.374151 155.14560547 -9.40188599 154.06152344 C-9.45248241 146.68997926 -9.45248241 146.68997926 -6.99291992 142.93945312 C-6.00642456 141.97942383 -6.00642456 141.97942383 -5 141 C-4.69218509 138.72056961 -4.69218509 138.72056961 -5.1875 136.5 C-5.30480469 135.7678125 -5.42210937 135.035625 -5.54296875 134.28125 C-5.85116745 132.74289068 -6.17887728 131.2083286 -6.5246582 129.67797852 C-7.00034163 126.99807534 -7.09850867 124.58949796 -7.0625 121.87109375 C-7.04993164 120.34971802 -7.04993164 120.34971802 -7.03710938 118.79760742 C-7.01874023 117.13435425 -7.01874023 117.13435425 -7 115.4375 C-6.94125504 105.56100388 -7.09440252 95.71687216 -7.42807007 85.84640503 C-7.94801001 70.24092725 -8.1378546 54.6389895 -8.17724609 39.02505493 C-8.18403383 36.60884398 -8.19423818 34.19263999 -8.20800781 31.77645874 C-8.22600419 28.35871538 -8.230168 24.94122301 -8.23046875 21.5234375 C-8.23761398 20.50811447 -8.24475922 19.49279144 -8.25212097 18.44670105 C-8.23254942 12.22343577 -7.97899026 5.95567745 -6 0 C-3.50907189 -1.24546405 -2.58919267 -0.7767578 0 0 Z M-10 251 C-11.39935013 253.79870027 -11.25265405 255.90498792 -11 259 C-10.505 259.495 -10.01 259.99 -9.5 260.5 C-8 262 -8 262 -7.6328125 264.59765625 C-8.12305766 269.140247 -10.0069337 272.09847228 -12.375 275.9375 C-16.540841 282.77859202 -19.40250507 288.74864603 -19 297 C-18.46632812 296.7834375 -17.93265625 296.566875 -17.3828125 296.34375 C-9.47678899 293.38924986 -1.65013434 292.49090451 6.2578125 295.984375 C13.41538649 300.15695177 15.68152667 308.51996195 18 316 C19.4676033 322.32431112 20.2949527 328.51104056 20 335 C23.1239274 334.31664456 23.1239274 334.31664456 24.31640625 331.84765625 C26.37804574 327.23966578 28.32666652 322.61759669 29.6875 317.75 C29.89761719 317.00234375 30.10773438 316.2546875 30.32421875 315.484375 C29.93999217 312.540181 29.23712759 311.98265229 27.23828125 309.87109375 C22.63788524 304.89264739 21.47565995 298.87439424 19.72265625 292.47460938 C17.95963349 286.56553068 16.63351325 284.05458304 11 281 C9.44225347 279.07351154 8.18818673 277.10173462 6.8828125 275 C4.89145502 272.88469911 3.66416401 272.39389451 1.0234375 271.328125 C-2.49141557 269.68071393 -3.71563145 268.30114906 -5.09375 264.671875 C-5.59369223 263.04048457 -6.06196043 261.39909014 -6.5 259.75 C-6.75007813 258.90953125 -7.00015625 258.0690625 -7.2578125 257.203125 C-7.86635823 255.14343177 -8.4370652 253.07262359 -9 251 C-9.33 251 -9.66 251 -10 251 Z " fill="#FFFFFF" transform="translate(249,380)"/>
</svg>
